<svg version="1.1" id="Layer_1" xmlns="http://www.w3.org/2000/svg" xmlns:xlink="http://www.w3.org/1999/xlink" x="0px" y="0px"
	 width="100%" viewBox="0 0 1522 295" enable-background="new 0 0 1522 295" xml:space="preserve">
<path fill="transparent" opacity="1.000000" stroke="none" 
	d="
M1145.000000,296.000000 
	C763.333374,296.000000 382.166718,296.000000 1.000051,296.000000 
	C1.000034,197.666702 1.000034,99.333389 1.000017,1.000064 
	C508.333282,1.000043 1015.666565,1.000043 1523.000000,1.000021 
	C1523.000000,99.333275 1523.000000,197.666550 1523.000000,295.999908 
	C1397.166626,296.000000 1271.333374,296.000000 1145.000000,296.000000 
M794.626038,247.073837 
	C797.270752,247.359421 799.914368,247.880417 802.560303,247.891983 
	C818.553406,247.961929 834.579285,248.532272 850.529663,247.699509 
	C861.905457,247.105560 873.508301,245.739914 884.432251,242.666000 
	C907.962219,236.044861 925.587830,221.715393 934.018311,198.132690 
	C944.248291,169.516235 944.668152,140.284515 936.183594,111.267448 
	C929.376648,87.987778 913.973816,72.277992 890.474182,65.119110 
	C859.678101,55.737511 828.086182,59.356033 796.709961,59.567348 
	C795.062378,59.578445 793.394226,59.935528 791.775757,60.306786 
	C782.998962,62.320152 777.096008,67.375893 775.767090,76.561958 
	C774.864746,82.798859 774.133606,89.123810 774.103638,95.413094 
	C773.943237,129.065903 774.024048,162.719849 774.029846,196.373413 
	C774.031128,203.703781 773.885010,211.040039 774.122253,218.363358 
	C774.711609,236.556763 779.311523,243.124710 794.626038,247.073837 
M533.405823,138.751633 
	C534.828125,134.336838 536.697449,130.010117 537.587585,125.490509 
	C540.114502,112.660965 539.749573,99.871414 534.276367,87.804085 
	C526.616272,70.915047 511.734985,63.925911 494.666626,61.082314 
	C471.858978,57.282547 448.822418,59.025486 425.861938,59.472919 
	C424.209686,59.505116 422.548584,59.846718 420.919525,60.180817 
	C411.197418,62.174759 405.724579,67.690491 404.099152,77.467628 
	C403.419189,81.557938 402.890350,85.730286 402.881531,89.866592 
	C402.775055,139.677277 402.777679,189.488190 402.762390,239.299042 
	C402.762054,240.462692 402.868286,241.627472 402.951447,242.789810 
	C403.178406,245.961868 405.014679,247.772675 408.063019,247.803741 
	C418.720764,247.912338 429.381775,247.919235 440.038513,247.761826 
	C443.057861,247.717224 444.910156,245.844681 445.047485,242.652496 
	C445.133362,240.656693 445.217316,238.658691 445.217804,236.661652 
	C445.227631,194.680435 445.214600,152.699203 445.249695,110.718025 
	C445.252045,107.901100 445.375641,105.047432 445.832153,102.274963 
	C446.993805,95.220993 450.078430,92.313774 457.067322,91.980789 
	C462.382599,91.727547 467.739197,91.696236 473.045746,92.046173 
	C482.915161,92.697014 490.302307,98.663216 492.837769,108.240051 
	C495.058746,116.628914 494.688507,125.052315 491.426025,133.205017 
	C488.420471,140.715652 482.568848,145.574463 474.814453,145.621384 
	C465.346863,145.678680 459.751312,150.733368 454.604919,157.302078 
	C449.672546,163.597580 450.011200,165.622849 456.024384,171.023529 
	C462.706757,177.025192 469.597351,182.851959 475.776215,189.345810 
	C489.589050,203.862732 499.542816,220.916046 506.874695,239.491440 
	C509.270477,245.561172 513.209229,248.312256 519.827393,248.054016 
	C528.310730,247.722992 536.816650,247.981720 545.312866,247.971313 
	C552.937866,247.961960 554.387512,246.362045 552.444214,239.081955 
	C545.707581,213.845474 533.301941,191.706985 515.371094,172.729141 
	C512.133545,169.302612 508.281555,166.456711 504.616241,163.258072 
	C525.548645,150.698196 525.785950,150.498428 533.405823,138.751633 
M365.300720,198.160080 
	C357.656708,164.850815 347.314972,132.397247 333.059662,101.334625 
	C327.748962,89.762527 320.960297,78.830582 314.343323,67.911110 
	C310.664703,61.840618 304.544189,59.075836 297.383972,59.023170 
	C290.551605,58.972916 283.718079,58.964451 276.885956,59.030838 
	C270.515656,59.092743 264.991486,61.430698 261.311035,66.625237 
	C256.899841,72.851120 252.608078,79.242546 249.047592,85.976288 
	C233.424545,115.523193 222.763351,146.984573 213.965775,179.116577 
	C208.463867,199.211609 204.029114,219.523575 202.904449,240.411743 
	C202.570740,246.609467 203.853989,247.929214 209.853714,247.960953 
	C219.186630,248.010345 228.520264,248.012955 237.853149,247.959686 
	C244.191055,247.923508 245.487686,246.413300 246.121338,240.058273 
	C247.252045,228.718445 248.639694,217.404236 249.915756,206.115982 
	C274.492737,206.115982 298.139313,206.115982 322.801758,206.115982 
	C324.187500,217.616028 325.664276,229.122986 326.925385,240.653519 
	C327.555603,246.415543 328.860901,247.914139 334.709534,247.956268 
	C343.875610,248.022293 353.042480,247.980957 362.209015,247.972000 
	C370.576599,247.963837 372.517334,246.156067 371.438538,237.916260 
	C369.733826,224.895599 367.557159,211.936752 365.300720,198.160080 
M1286.839233,231.294998 
	C1287.875977,222.933304 1288.912598,214.571594 1289.950684,206.199432 
	C1314.359497,206.199432 1338.131714,206.199432 1362.750366,206.199432 
	C1364.149902,217.834702 1365.606323,229.371872 1366.897583,240.927521 
	C1367.515747,246.459259 1368.786743,247.907318 1374.393066,247.951462 
	C1384.225098,248.028854 1394.058472,248.013763 1403.890747,247.958359 
	C1409.803223,247.925034 1411.876709,245.956726 1411.524780,240.137436 
	C1411.133301,233.662445 1410.637939,227.156433 1409.577515,220.765244 
	C1402.817383,180.029678 1390.511108,140.907104 1373.851074,103.221062 
	C1368.440063,90.980988 1361.200806,79.509758 1354.306641,67.980431 
	C1350.547241,61.693344 1344.224976,59.021084 1336.889160,58.999603 
	C1330.389893,58.980568 1323.890503,58.976326 1317.391235,58.995644 
	C1310.649414,59.015678 1304.851196,61.386829 1300.964355,66.943909 
	C1296.684814,73.062416 1292.469604,79.306442 1289.017334,85.909294 
	C1271.038208,120.295967 1258.811646,156.834610 1250.162231,194.524246 
	C1246.676270,209.714294 1245.114746,225.351837 1242.836670,240.809219 
	C1242.267456,244.671860 1243.277710,247.936920 1248.169434,247.945496 
	C1258.668457,247.963913 1269.167725,247.990860 1279.666138,247.909775 
	C1283.667114,247.878876 1285.707642,245.636719 1285.964478,241.656189 
	C1286.168335,238.499313 1286.480225,235.349411 1286.839233,231.294998 
M52.582355,237.951492 
	C58.812992,240.656250 64.858177,243.960266 71.308136,245.956345 
	C92.900459,252.638474 115.000366,252.056671 137.127380,249.421021 
	C150.470032,247.831711 163.120300,243.854950 174.793091,237.143280 
	C176.336151,236.256058 178.093552,234.057388 178.108185,232.451096 
	C178.301025,211.293808 178.233215,190.133636 178.105713,168.974945 
	C178.095383,167.258530 177.650879,165.131760 176.588943,163.904587 
	C171.373123,157.877243 165.934113,152.038742 160.458679,146.242447 
	C158.279755,143.935837 155.790115,143.848663 153.485931,146.241714 
	C148.871323,151.034271 144.278305,155.847641 139.679749,160.655655 
	C136.634918,163.839172 135.599762,167.581268 135.682831,172.013031 
	C135.898254,183.505081 135.540848,195.009521 135.849487,206.497269 
	C135.957153,210.504456 134.471161,212.616714 130.857513,212.944550 
	C121.473846,213.795807 111.982811,215.445908 102.679726,214.772537 
	C85.629250,213.538376 73.441246,204.183960 67.048096,188.310593 
	C58.726944,167.650238 58.759354,146.292450 64.361450,125.074486 
	C68.181145,110.607353 76.515877,99.338730 91.351479,93.992706 
	C108.426781,87.839584 124.221764,91.628815 136.596893,104.786026 
	C138.062195,106.343925 140.416183,107.708351 142.490845,107.931961 
	C149.093567,108.643600 155.757797,108.797836 162.400574,109.119629 
	C166.284317,109.307770 168.383453,107.232750 168.607910,103.515457 
	C168.968674,97.540909 169.652817,91.495522 169.081955,85.588142 
	C168.725662,81.901047 167.058685,77.790489 164.685486,74.952309 
	C157.770050,66.681953 148.501999,61.671360 138.130219,59.091034 
	C121.932335,55.061268 105.426369,54.720978 89.008377,57.123035 
	C59.179398,61.487206 37.017120,76.815819 24.988142,104.915314 
	C13.932576,130.740921 14.010240,157.714325 18.707195,184.882767 
	C22.527397,206.979843 32.314308,225.415939 52.582355,237.951492 
M615.457397,70.094635 
	C611.086975,65.521843 606.754333,60.912071 602.331665,56.390450 
	C599.778809,53.780445 597.063293,53.793015 594.546570,56.476009 
	C589.765259,61.573223 584.701660,66.462334 580.448486,71.972908 
	C578.499939,74.497421 577.303467,78.282524 577.279846,81.507034 
	C577.050598,112.835197 577.014404,144.166595 577.230347,175.494949 
	C577.286438,183.625259 577.847534,191.841446 579.160461,199.857056 
	C583.188904,224.451279 596.422424,241.305344 621.370056,247.339645 
	C641.722473,252.262482 662.253662,252.486740 682.798279,248.444031 
	C694.575134,246.126587 705.362427,241.797119 714.197571,233.223999 
	C727.212952,220.594742 732.514771,204.635178 732.846313,187.229385 
	C733.522095,151.746689 733.346985,116.247200 733.390625,80.754478 
	C733.393555,78.389465 732.971924,75.464905 731.576599,73.758072 
	C726.639465,67.718781 721.267395,62.025753 715.907227,56.345833 
	C713.405029,53.694347 710.690430,53.871922 708.139404,56.599510 
	C703.820496,61.217453 699.453979,65.791351 695.076660,70.354202 
	C691.765320,73.805931 690.804932,77.852142 690.825073,82.625397 
	C690.954468,113.287598 691.033813,143.953110 690.667786,174.612015 
	C690.581421,181.846710 689.395508,189.238266 687.527893,196.240906 
	C684.886536,206.144547 678.331055,213.103821 667.745850,214.166779 
	C659.558044,214.988983 651.150757,215.008301 642.969116,214.155502 
	C632.899841,213.105957 626.253174,206.665115 623.572876,197.092209 
	C621.663635,190.273132 620.253113,183.075089 620.164856,176.026810 
	C619.776611,145.034973 619.885925,114.035881 619.987732,83.039993 
	C620.003296,78.316879 619.272827,74.135124 615.457397,70.094635 
M996.737305,95.105568 
	C1005.902771,90.695328 1015.509033,88.345177 1025.724854,89.208855 
	C1038.074097,90.252892 1045.312378,95.721649 1047.500366,106.133347 
	C1049.069092,113.598099 1049.196655,121.405220 1044.781372,127.877937 
	C1040.428711,134.259003 1035.440674,140.492508 1029.641113,145.537598 
	C1019.486816,154.371185 1008.262451,161.962585 997.909546,170.582703 
	C977.125671,187.888123 963.816345,209.071045 964.891968,237.302322 
	C965.196960,245.306915 967.797852,248.004715 975.898987,248.012192 
	C1009.880798,248.043533 1043.862671,248.058655 1077.844116,247.948685 
	C1080.032104,247.941620 1082.689331,247.420532 1084.313354,246.120468 
	C1089.105225,242.284286 1093.524536,237.975922 1098.013794,233.771210 
	C1100.075562,231.840103 1100.057983,229.767578 1097.968994,227.744904 
	C1094.741455,224.619736 1091.523315,221.483475 1088.357788,218.295792 
	C1084.750366,214.662979 1080.564697,213.337677 1075.342407,213.396317 
	C1055.522827,213.618912 1035.698486,213.408096 1015.875854,213.360321 
	C1014.254028,213.356415 1012.632202,213.359802 1009.277405,213.359802 
	C1011.798401,208.860641 1013.109009,204.965866 1015.677795,202.269989 
	C1020.591248,197.113480 1025.996338,192.354355 1031.600220,187.941925 
	C1042.710083,179.194336 1054.418213,171.184814 1065.283203,162.153320 
	C1079.321899,150.483734 1088.606689,135.691971 1090.386108,117.122635 
	C1092.351318,96.614349 1087.306885,78.654945 1069.394165,66.394173 
	C1058.356079,58.838840 1045.681030,56.373802 1032.482544,55.935036 
	C1011.586731,55.240379 991.755859,58.925011 973.633545,69.835449 
	C968.470337,72.943970 968.165833,74.257492 971.060181,79.452690 
	C974.215454,85.116074 977.397034,90.766479 980.676086,96.358696 
	C983.845703,101.764145 984.794983,101.979874 990.043945,98.981430 
	C992.065002,97.826942 994.070923,96.646042 996.737305,95.105568 
M1204.293701,79.500237 
	C1204.293701,71.389526 1204.293701,63.278809 1204.293701,54.775917 
	C1197.893799,54.775917 1191.929443,54.622559 1185.978271,54.836945 
	C1182.726318,54.954094 1179.121216,54.919949 1176.319580,56.280552 
	C1160.616821,63.906200 1145.088501,71.893768 1129.565796,79.884308 
	C1127.733643,80.827400 1125.594360,82.225014 1124.810303,83.959976 
	C1122.221191,89.688759 1120.111572,95.641258 1117.974487,101.564346 
	C1116.883545,104.587631 1118.070068,106.748848 1121.132080,107.802437 
	C1125.215942,109.207603 1129.305786,110.594994 1133.393433,111.988792 
	C1138.551025,113.747429 1143.307495,113.423714 1148.144165,110.427101 
	C1152.544922,107.700455 1157.453979,105.793816 1162.694458,103.256798 
	C1162.694458,121.684166 1162.682739,139.150970 1162.697266,156.617737 
	C1162.720093,183.942734 1162.744629,211.267761 1162.803223,238.592712 
	C1162.821167,246.947586 1163.911011,247.977295 1172.373291,247.996536 
	C1179.537720,248.012833 1186.702271,248.005081 1193.866699,247.998688 
	C1203.719727,247.989899 1204.248047,247.461472 1204.251343,237.452530 
	C1204.268555,185.135101 1204.279419,132.817673 1204.293701,79.500237 
M1442.657593,166.499817 
	C1442.657593,190.639801 1442.626099,214.779831 1442.676147,238.919724 
	C1442.692261,246.739029 1443.937378,247.926773 1451.614502,247.962006 
	C1459.439087,247.997910 1467.263916,247.980331 1475.088623,247.967453 
	C1484.210571,247.952423 1485.142700,247.053345 1485.144287,238.055344 
	C1485.154053,186.279236 1485.088745,134.502960 1485.245728,82.727325 
	C1485.260864,77.737450 1484.115845,73.573364 1480.793091,70.014244 
	C1476.595093,65.517982 1472.297729,61.114349 1468.029297,56.684185 
	C1465.123047,53.667854 1462.266235,53.863525 1459.470825,56.865707 
	C1455.166016,61.488876 1450.850464,66.101967 1446.546143,70.725708 
	C1443.560181,73.933105 1442.549805,77.648506 1442.575684,82.092468 
	C1442.737671,109.894119 1442.657593,137.697189 1442.657593,166.499817 
z"/>
<path fill="#FFFFFF" opacity="1.000000" stroke="none" 
	d="
M794.205261,247.014435 
	C779.311523,243.124710 774.711609,236.556763 774.122253,218.363358 
	C773.885010,211.040039 774.031128,203.703781 774.029846,196.373413 
	C774.024048,162.719849 773.943237,129.065903 774.103638,95.413094 
	C774.133606,89.123810 774.864746,82.798859 775.767090,76.561958 
	C777.096008,67.375893 782.998962,62.320152 791.775757,60.306786 
	C793.394226,59.935528 795.062378,59.578445 796.709961,59.567348 
	C828.086182,59.356033 859.678101,55.737511 890.474182,65.119110 
	C913.973816,72.277992 929.376648,87.987778 936.183594,111.267448 
	C944.668152,140.284515 944.248291,169.516235 934.018311,198.132690 
	C925.587830,221.715393 907.962219,236.044861 884.432251,242.666000 
	C873.508301,245.739914 861.905457,247.105560 850.529663,247.699509 
	C834.579285,248.532272 818.553406,247.961929 802.560303,247.891983 
	C799.914368,247.880417 797.270752,247.359421 794.205261,247.014435 
M839.482788,213.271255 
	C844.620361,212.826614 849.819397,212.741211 854.884705,211.874298 
	C875.339722,208.373474 889.065308,197.252396 894.101318,176.528961 
	C897.823853,161.210846 897.915283,145.783936 894.791809,130.444611 
	C891.966797,116.571144 885.016602,105.238998 871.431213,99.461731 
	C856.794495,93.237404 841.291016,92.875526 825.756287,94.281067 
	C820.439514,94.762115 817.131165,98.698067 817.088318,104.901596 
	C816.864807,137.227173 816.826477,169.556290 817.087646,201.881241 
	C817.147888,209.335953 821.076782,212.595154 828.505493,213.111710 
	C831.824219,213.342453 835.165222,213.253479 839.482788,213.271255 
z"/>
<path fill="#FFFFFF" opacity="1.000000" stroke="none" 
	d="
M533.230103,139.081726 
	C525.785950,150.498428 525.548645,150.698196 504.616241,163.258072 
	C508.281555,166.456711 512.133545,169.302612 515.371094,172.729141 
	C533.301941,191.706985 545.707581,213.845474 552.444214,239.081955 
	C554.387512,246.362045 552.937866,247.961960 545.312866,247.971313 
	C536.816650,247.981720 528.310730,247.722992 519.827393,248.054016 
	C513.209229,248.312256 509.270477,245.561172 506.874695,239.491440 
	C499.542816,220.916046 489.589050,203.862732 475.776215,189.345810 
	C469.597351,182.851959 462.706757,177.025192 456.024384,171.023529 
	C450.011200,165.622849 449.672546,163.597580 454.604919,157.302078 
	C459.751312,150.733368 465.346863,145.678680 474.814453,145.621384 
	C482.568848,145.574463 488.420471,140.715652 491.426025,133.205017 
	C494.688507,125.052315 495.058746,116.628914 492.837769,108.240051 
	C490.302307,98.663216 482.915161,92.697014 473.045746,92.046173 
	C467.739197,91.696236 462.382599,91.727547 457.067322,91.980789 
	C450.078430,92.313774 446.993805,95.220993 445.832153,102.274963 
	C445.375641,105.047432 445.252045,107.901100 445.249695,110.718025 
	C445.214600,152.699203 445.227631,194.680435 445.217804,236.661652 
	C445.217316,238.658691 445.133362,240.656693 445.047485,242.652496 
	C444.910156,245.844681 443.057861,247.717224 440.038513,247.761826 
	C429.381775,247.919235 418.720764,247.912338 408.063019,247.803741 
	C405.014679,247.772675 403.178406,245.961868 402.951447,242.789810 
	C402.868286,241.627472 402.762054,240.462692 402.762390,239.299042 
	C402.777679,189.488190 402.775055,139.677277 402.881531,89.866592 
	C402.890350,85.730286 403.419189,81.557938 404.099152,77.467628 
	C405.724579,67.690491 411.197418,62.174759 420.919525,60.180817 
	C422.548584,59.846718 424.209686,59.505116 425.861938,59.472919 
	C448.822418,59.025486 471.858978,57.282547 494.666626,61.082314 
	C511.734985,63.925911 526.616272,70.915047 534.276367,87.804085 
	C539.749573,99.871414 540.114502,112.660965 537.587585,125.490509 
	C536.697449,130.010117 534.828125,134.336838 533.230103,139.081726 
z"/>
<path fill="#FFFFFF" opacity="1.000000" stroke="none" 
	d="
M365.440460,198.555908 
	C367.557159,211.936752 369.733826,224.895599 371.438538,237.916260 
	C372.517334,246.156067 370.576599,247.963837 362.209015,247.972000 
	C353.042480,247.980957 343.875610,248.022293 334.709534,247.956268 
	C328.860901,247.914139 327.555603,246.415543 326.925385,240.653519 
	C325.664276,229.122986 324.187500,217.616028 322.801758,206.115982 
	C298.139313,206.115982 274.492737,206.115982 249.915756,206.115982 
	C248.639694,217.404236 247.252045,228.718445 246.121338,240.058273 
	C245.487686,246.413300 244.191055,247.923508 237.853149,247.959686 
	C228.520264,248.012955 219.186630,248.010345 209.853714,247.960953 
	C203.853989,247.929214 202.570740,246.609467 202.904449,240.411743 
	C204.029114,219.523575 208.463867,199.211609 213.965775,179.116577 
	C222.763351,146.984573 233.424545,115.523193 249.047592,85.976288 
	C252.608078,79.242546 256.899841,72.851120 261.311035,66.625237 
	C264.991486,61.430698 270.515656,59.092743 276.885956,59.030838 
	C283.718079,58.964451 290.551605,58.972916 297.383972,59.023170 
	C304.544189,59.075836 310.664703,61.840618 314.343323,67.911110 
	C320.960297,78.830582 327.748962,89.762527 333.059662,101.334625 
	C347.314972,132.397247 357.656708,164.850815 365.440460,198.555908 
M270.530212,132.079239 
	C266.098785,145.534851 261.667358,158.990479 257.139862,172.737762 
	C276.848145,172.737762 295.392731,172.737762 313.985565,172.737762 
	C310.840454,154.841858 294.389282,112.244530 285.483185,99.749786 
	C280.414032,110.704208 275.632477,121.037155 270.530212,132.079239 
z"/>
<path fill="#FFFFFF" opacity="1.000000" stroke="none" 
	d="
M1286.791748,231.745697 
	C1286.480225,235.349411 1286.168335,238.499313 1285.964478,241.656189 
	C1285.707642,245.636719 1283.667114,247.878876 1279.666138,247.909775 
	C1269.167725,247.990860 1258.668457,247.963913 1248.169434,247.945496 
	C1243.277710,247.936920 1242.267456,244.671860 1242.836670,240.809219 
	C1245.114746,225.351837 1246.676270,209.714294 1250.162231,194.524246 
	C1258.811646,156.834610 1271.038208,120.295967 1289.017334,85.909294 
	C1292.469604,79.306442 1296.684814,73.062416 1300.964355,66.943909 
	C1304.851196,61.386829 1310.649414,59.015678 1317.391235,58.995644 
	C1323.890503,58.976326 1330.389893,58.980568 1336.889160,58.999603 
	C1344.224976,59.021084 1350.547241,61.693344 1354.306641,67.980431 
	C1361.200806,79.509758 1368.440063,90.980988 1373.851074,103.221062 
	C1390.511108,140.907104 1402.817383,180.029678 1409.577515,220.765244 
	C1410.637939,227.156433 1411.133301,233.662445 1411.524780,240.137436 
	C1411.876709,245.956726 1409.803223,247.925034 1403.890747,247.958359 
	C1394.058472,248.013763 1384.225098,248.028854 1374.393066,247.951462 
	C1368.786743,247.907318 1367.515747,246.459259 1366.897583,240.927521 
	C1365.606323,229.371872 1364.149902,217.834702 1362.750366,206.199432 
	C1338.131714,206.199432 1314.359497,206.199432 1289.950684,206.199432 
	C1288.912598,214.571594 1287.875977,222.933304 1286.791748,231.745697 
M1353.229492,169.378143 
	C1346.507690,145.663956 1338.620972,122.414154 1326.427002,100.480354 
	C1316.812988,113.169456 1299.057495,158.951904 1298.165527,173.032272 
	C1315.970337,173.032272 1333.759399,172.998245 1351.548096,173.071777 
	C1353.999023,173.081909 1354.487183,172.230392 1353.229492,169.378143 
z"/>
<path fill="#FFFFFF" opacity="1.000000" stroke="none" 
	d="
M52.269920,237.765778 
	C32.314308,225.415939 22.527397,206.979843 18.707195,184.882767 
	C14.010240,157.714325 13.932576,130.740921 24.988142,104.915314 
	C37.017120,76.815819 59.179398,61.487206 89.008377,57.123035 
	C105.426369,54.720978 121.932335,55.061268 138.130219,59.091034 
	C148.501999,61.671360 157.770050,66.681953 164.685486,74.952309 
	C167.058685,77.790489 168.725662,81.901047 169.081955,85.588142 
	C169.652817,91.495522 168.968674,97.540909 168.607910,103.515457 
	C168.383453,107.232750 166.284317,109.307770 162.400574,109.119629 
	C155.757797,108.797836 149.093567,108.643600 142.490845,107.931961 
	C140.416183,107.708351 138.062195,106.343925 136.596893,104.786026 
	C124.221764,91.628815 108.426781,87.839584 91.351479,93.992706 
	C76.515877,99.338730 68.181145,110.607353 64.361450,125.074486 
	C58.759354,146.292450 58.726944,167.650238 67.048096,188.310593 
	C73.441246,204.183960 85.629250,213.538376 102.679726,214.772537 
	C111.982811,215.445908 121.473846,213.795807 130.857513,212.944550 
	C134.471161,212.616714 135.957153,210.504456 135.849487,206.497269 
	C135.540848,195.009521 135.898254,183.505081 135.682831,172.013031 
	C135.599762,167.581268 136.634918,163.839172 139.679749,160.655655 
	C144.278305,155.847641 148.871323,151.034271 153.485931,146.241714 
	C155.790115,143.848663 158.279755,143.935837 160.458679,146.242447 
	C165.934113,152.038742 171.373123,157.877243 176.588943,163.904587 
	C177.650879,165.131760 178.095383,167.258530 178.105713,168.974945 
	C178.233215,190.133636 178.301025,211.293808 178.108185,232.451096 
	C178.093552,234.057388 176.336151,236.256058 174.793091,237.143280 
	C163.120300,243.854950 150.470032,247.831711 137.127380,249.421021 
	C115.000366,252.056671 92.900459,252.638474 71.308136,245.956345 
	C64.858177,243.960266 58.812992,240.656250 52.269920,237.765778 
z"/>
<path fill="#FFFFFF" opacity="1.000000" stroke="none" 
	d="
M615.676147,70.385956 
	C619.272827,74.135124 620.003296,78.316879 619.987732,83.039993 
	C619.885925,114.035881 619.776611,145.034973 620.164856,176.026810 
	C620.253113,183.075089 621.663635,190.273132 623.572876,197.092209 
	C626.253174,206.665115 632.899841,213.105957 642.969116,214.155502 
	C651.150757,215.008301 659.558044,214.988983 667.745850,214.166779 
	C678.331055,213.103821 684.886536,206.144547 687.527893,196.240906 
	C689.395508,189.238266 690.581421,181.846710 690.667786,174.612015 
	C691.033813,143.953110 690.954468,113.287598 690.825073,82.625397 
	C690.804932,77.852142 691.765320,73.805931 695.076660,70.354202 
	C699.453979,65.791351 703.820496,61.217453 708.139404,56.599510 
	C710.690430,53.871922 713.405029,53.694347 715.907227,56.345833 
	C721.267395,62.025753 726.639465,67.718781 731.576599,73.758072 
	C732.971924,75.464905 733.393555,78.389465 733.390625,80.754478 
	C733.346985,116.247200 733.522095,151.746689 732.846313,187.229385 
	C732.514771,204.635178 727.212952,220.594742 714.197571,233.223999 
	C705.362427,241.797119 694.575134,246.126587 682.798279,248.444031 
	C662.253662,252.486740 641.722473,252.262482 621.370056,247.339645 
	C596.422424,241.305344 583.188904,224.451279 579.160461,199.857056 
	C577.847534,191.841446 577.286438,183.625259 577.230347,175.494949 
	C577.014404,144.166595 577.050598,112.835197 577.279846,81.507034 
	C577.303467,78.282524 578.499939,74.497421 580.448486,71.972908 
	C584.701660,66.462334 589.765259,61.573223 594.546570,56.476009 
	C597.063293,53.793015 599.778809,53.780445 602.331665,56.390450 
	C606.754333,60.912071 611.086975,65.521843 615.676147,70.385956 
z"/>
<path fill="#FFFFFF" opacity="1.000000" stroke="none" 
	d="
M996.410522,95.291367 
	C994.070923,96.646042 992.065002,97.826942 990.043945,98.981430 
	C984.794983,101.979874 983.845703,101.764145 980.676086,96.358696 
	C977.397034,90.766479 974.215454,85.116074 971.060181,79.452690 
	C968.165833,74.257492 968.470337,72.943970 973.633545,69.835449 
	C991.755859,58.925011 1011.586731,55.240379 1032.482544,55.935036 
	C1045.681030,56.373802 1058.356079,58.838840 1069.394165,66.394173 
	C1087.306885,78.654945 1092.351318,96.614349 1090.386108,117.122635 
	C1088.606689,135.691971 1079.321899,150.483734 1065.283203,162.153320 
	C1054.418213,171.184814 1042.710083,179.194336 1031.600220,187.941925 
	C1025.996338,192.354355 1020.591248,197.113480 1015.677795,202.269989 
	C1013.109009,204.965866 1011.798401,208.860641 1009.277405,213.359802 
	C1012.632202,213.359802 1014.254028,213.356415 1015.875854,213.360321 
	C1035.698486,213.408096 1055.522827,213.618912 1075.342407,213.396317 
	C1080.564697,213.337677 1084.750366,214.662979 1088.357788,218.295792 
	C1091.523315,221.483475 1094.741455,224.619736 1097.968994,227.744904 
	C1100.057983,229.767578 1100.075562,231.840103 1098.013794,233.771210 
	C1093.524536,237.975922 1089.105225,242.284286 1084.313354,246.120468 
	C1082.689331,247.420532 1080.032104,247.941620 1077.844116,247.948685 
	C1043.862671,248.058655 1009.880798,248.043533 975.898987,248.012192 
	C967.797852,248.004715 965.196960,245.306915 964.891968,237.302322 
	C963.816345,209.071045 977.125671,187.888123 997.909546,170.582703 
	C1008.262451,161.962585 1019.486816,154.371185 1029.641113,145.537598 
	C1035.440674,140.492508 1040.428711,134.259003 1044.781372,127.877937 
	C1049.196655,121.405220 1049.069092,113.598099 1047.500366,106.133347 
	C1045.312378,95.721649 1038.074097,90.252892 1025.724854,89.208855 
	C1015.509033,88.345177 1005.902771,90.695328 996.410522,95.291367 
z"/>
<path fill="#FFFFFF" opacity="1.000000" stroke="none" 
	d="
M1204.293091,80.000244 
	C1204.279419,132.817673 1204.268555,185.135101 1204.251343,237.452530 
	C1204.248047,247.461472 1203.719727,247.989899 1193.866699,247.998688 
	C1186.702271,248.005081 1179.537720,248.012833 1172.373291,247.996536 
	C1163.911011,247.977295 1162.821167,246.947586 1162.803223,238.592712 
	C1162.744629,211.267761 1162.720093,183.942734 1162.697266,156.617737 
	C1162.682739,139.150970 1162.694458,121.684166 1162.694458,103.256798 
	C1157.453979,105.793816 1152.544922,107.700455 1148.144165,110.427101 
	C1143.307495,113.423714 1138.551025,113.747429 1133.393433,111.988792 
	C1129.305786,110.594994 1125.215942,109.207603 1121.132080,107.802437 
	C1118.070068,106.748848 1116.883545,104.587631 1117.974487,101.564346 
	C1120.111572,95.641258 1122.221191,89.688759 1124.810303,83.959976 
	C1125.594360,82.225014 1127.733643,80.827400 1129.565796,79.884308 
	C1145.088501,71.893768 1160.616821,63.906200 1176.319580,56.280552 
	C1179.121216,54.919949 1182.726318,54.954094 1185.978271,54.836945 
	C1191.929443,54.622559 1197.893799,54.775917 1204.293701,54.775917 
	C1204.293701,63.278809 1204.293701,71.389526 1204.293091,80.000244 
z"/>
<path fill="#FFFFFF" opacity="1.000000" stroke="none" 
	d="
M1442.657593,165.999802 
	C1442.657593,137.697189 1442.737671,109.894119 1442.575684,82.092468 
	C1442.549805,77.648506 1443.560181,73.933105 1446.546143,70.725708 
	C1450.850464,66.101967 1455.166016,61.488876 1459.470825,56.865707 
	C1462.266235,53.863525 1465.123047,53.667854 1468.029297,56.684185 
	C1472.297729,61.114349 1476.595093,65.517982 1480.793091,70.014244 
	C1484.115845,73.573364 1485.260864,77.737450 1485.245728,82.727325 
	C1485.088745,134.502960 1485.154053,186.279236 1485.144287,238.055344 
	C1485.142700,247.053345 1484.210571,247.952423 1475.088623,247.967453 
	C1467.263916,247.980331 1459.439087,247.997910 1451.614502,247.962006 
	C1443.937378,247.926773 1442.692261,246.739029 1442.676147,238.919724 
	C1442.626099,214.779831 1442.657593,190.639801 1442.657593,165.999802 
z"/>
<path fill="transparent" opacity="1.000000" stroke="none" 
	d="
M838.989441,213.290436 
	C835.165222,213.253479 831.824219,213.342453 828.505493,213.111710 
	C821.076782,212.595154 817.147888,209.335953 817.087646,201.881241 
	C816.826477,169.556290 816.864807,137.227173 817.088318,104.901596 
	C817.131165,98.698067 820.439514,94.762115 825.756287,94.281067 
	C841.291016,92.875526 856.794495,93.237404 871.431213,99.461731 
	C885.016602,105.238998 891.966797,116.571144 894.791809,130.444611 
	C897.915283,145.783936 897.823853,161.210846 894.101318,176.528961 
	C889.065308,197.252396 875.339722,208.373474 854.884705,211.874298 
	C849.819397,212.741211 844.620361,212.826614 838.989441,213.290436 
z"/>
<path fill="transparent" opacity="1.000000" stroke="none" 
	d="
M270.690552,131.724670 
	C275.632477,121.037155 280.414032,110.704208 285.483185,99.749786 
	C294.389282,112.244530 310.840454,154.841858 313.985565,172.737762 
	C295.392731,172.737762 276.848145,172.737762 257.139862,172.737762 
	C261.667358,158.990479 266.098785,145.534851 270.690552,131.724670 
z"/>
<path fill="transparent" opacity="1.000000" stroke="none" 
	d="
M1353.413818,169.764725 
	C1354.487183,172.230392 1353.999023,173.081909 1351.548096,173.071777 
	C1333.759399,172.998245 1315.970337,173.032272 1298.165527,173.032272 
	C1299.057495,158.951904 1316.812988,113.169456 1326.427002,100.480354 
	C1338.620972,122.414154 1346.507690,145.663956 1353.413818,169.764725 
z"/>
</svg>