<svg version="1.1" id="Layer_1" xmlns="http://www.w3.org/2000/svg" xmlns:xlink="http://www.w3.org/1999/xlink" x="0px" y="0px"
	 width="100%" viewBox="0 0 759 170" enable-background="new 0 0 759 170" xml:space="preserve">
<path fill="transparent" opacity="1.000000" stroke="none" 
	d="
M505.000000,171.000000 
	C336.666656,171.000000 168.833328,171.000000 1.000000,171.000000 
	C1.000000,114.333336 1.000000,57.666668 1.000000,1.000000 
	C254.000000,1.000000 507.000000,1.000000 760.000000,1.000000 
	C760.000000,57.666668 760.000000,114.333336 760.000000,171.000000 
	C675.166687,171.000000 590.333313,171.000000 505.000000,171.000000 
M576.193115,74.319382 
	C574.070435,50.632233 561.732178,35.684406 538.269592,32.260860 
	C522.756104,29.997211 506.751984,30.485262 490.987122,30.781990 
	C481.373505,30.962938 478.278992,34.938049 477.184723,44.499672 
	C476.920532,46.807877 476.939392,49.155842 476.937836,51.485600 
	C476.921997,74.970978 476.923553,98.456375 476.938446,121.941757 
	C476.939819,124.105247 476.925842,126.284027 477.159760,128.429459 
	C478.219330,138.148514 482.071808,142.540924 491.750671,142.733871 
	C505.711884,143.012192 519.783630,143.208511 533.644165,141.811661 
	C555.255005,139.633743 570.120728,126.584579 574.398926,105.919662 
	C576.457214,95.977333 575.758240,85.464165 576.193115,74.319382 
M255.033615,103.500000 
	C255.033951,114.826874 255.117828,126.154686 254.990189,137.480118 
	C254.944336,141.549637 256.549591,143.241470 260.643005,143.035950 
	C264.796814,142.827408 268.969299,142.996323 273.133606,142.989014 
	C280.113831,142.976761 280.505585,142.625977 280.511627,135.728470 
	C280.530914,113.740967 280.511230,91.753433 280.525513,69.765938 
	C280.528198,65.603447 280.375824,61.417889 280.770966,57.288521 
	C280.962769,55.283649 281.732727,52.801334 283.141052,51.540646 
	C288.388611,46.843075 304.593140,50.269154 307.656281,56.740475 
	C310.753204,63.283108 310.719604,70.272629 306.811707,76.304871 
	C305.075439,78.985023 301.130737,81.506432 298.010193,81.742310 
	C292.236328,82.178749 289.000854,85.393509 285.746979,89.254242 
	C283.313873,92.141106 283.686371,94.598930 286.627686,96.870071 
	C300.813385,107.823570 310.899109,121.825638 317.454437,138.442474 
	C318.690948,141.576843 320.899475,143.110947 324.374786,143.019012 
	C329.201965,142.891327 334.035126,142.998398 338.865692,142.988098 
	C345.192322,142.974594 345.776154,142.447693 344.020111,136.423904 
	C338.972931,119.110352 330.147675,104.133766 315.874695,92.413963 
	C316.686676,91.944580 317.347198,91.512154 318.049561,91.164169 
	C332.600220,83.955177 338.080444,73.145302 335.951477,55.828560 
	C334.380768,43.053047 326.271362,34.252499 310.931580,32.025620 
	C298.338593,30.197498 285.397980,30.294319 272.616211,30.367329 
	C259.539124,30.442020 255.575577,34.901604 255.076050,48.031296 
	C255.025406,49.362320 255.038757,50.696136 255.038498,52.028660 
	C255.035141,68.852440 255.034760,85.676224 255.033615,103.500000 
M623.673584,118.003212 
	C635.951294,118.003212 648.228943,118.003212 660.900940,118.003212 
	C661.704773,124.965065 662.569153,131.376236 663.139771,137.813446 
	C663.462341,141.452103 664.849426,143.217865 668.760864,143.045486 
	C674.083008,142.810944 679.427307,142.859329 684.754333,143.029343 
	C688.636597,143.153259 690.348938,141.560181 689.983459,137.693008 
	C689.842529,136.201279 689.898315,134.686188 689.690063,133.206299 
	C685.365051,102.474693 675.803772,73.425545 662.292236,45.514729 
	C656.752686,34.071465 649.057495,28.412592 635.948059,29.994221 
	C629.805664,30.735289 624.766541,32.273991 621.970886,37.884911 
	C616.348572,49.169373 610.353455,60.337837 605.732605,72.036232 
	C597.528015,92.807602 591.517273,114.256508 589.430542,136.636078 
	C588.901306,142.311264 589.436279,142.963074 595.258545,142.984283 
	C599.591125,143.000076 603.939270,142.758133 608.252319,143.048904 
	C613.004578,143.369293 615.186340,141.952103 615.325989,136.722153 
	C615.492310,130.496094 616.719238,124.298355 617.497192,118.003212 
	C619.734131,118.003212 621.226990,118.003212 623.673584,118.003212 
M228.181213,96.293396 
	C226.071899,89.648354 224.484741,82.778740 221.743652,76.405418 
	C216.182220,63.474442 210.264038,50.675674 203.876251,38.136547 
	C202.316956,35.075680 198.742996,32.076199 195.462021,31.024832 
	C181.466385,26.540009 172.130112,30.457323 165.019684,43.158150 
	C155.633087,59.924690 148.860123,77.818306 144.101395,96.344406 
	C140.600922,109.972130 138.515762,123.965652 135.874619,137.810425 
	C135.133133,141.697220 136.881882,143.247787 140.857208,143.045364 
	C145.673172,142.800125 150.529007,142.728821 155.334442,143.061356 
	C159.954391,143.381073 161.493896,141.347351 161.796570,137.038864 
	C162.243286,130.679825 163.157623,124.353645 163.873627,118.006348 
	C178.212906,118.006348 191.692017,118.004120 205.171127,118.015411 
	C205.654724,118.015816 206.138214,118.149704 206.715958,118.235344 
	C207.053284,119.514725 207.515808,120.750000 207.691391,122.024788 
	C208.440155,127.461044 209.279922,132.894363 209.733841,138.358047 
	C210.012222,141.708862 211.402176,143.099106 214.741837,143.018280 
	C219.900238,142.893478 225.064011,143.006256 230.225327,142.981964 
	C235.914536,142.955185 237.044556,142.263214 236.096573,136.618317 
	C233.872940,123.377495 231.026688,110.241249 228.181213,96.293396 
M26.469774,108.912392 
	C30.240532,125.115898 39.786865,136.239044 55.718487,141.342743 
	C60.740204,142.951462 66.060303,144.000107 71.316040,144.437515 
	C87.244705,145.763184 102.890732,144.714264 117.560020,137.372620 
	C120.074669,136.114105 121.154953,134.620178 121.083565,131.656006 
	C120.859093,122.335403 120.138893,112.907143 121.211868,103.707314 
	C122.368294,93.792000 116.904488,88.169037 110.533813,82.682030 
	C109.615410,81.891014 106.892891,81.830986 105.998299,82.595169 
	C99.738068,87.942841 93.702065,93.495087 95.447479,103.125145 
	C95.944160,105.865494 95.524300,108.773407 95.511337,111.604416 
	C95.460808,122.643578 95.458801,122.643562 84.412285,123.599884 
	C67.312042,125.080292 55.063557,116.709633 52.394108,99.967720 
	C50.954258,90.937408 51.577011,81.418427 52.488846,72.241096 
	C52.937637,67.724136 55.515423,63.022057 58.248161,59.204269 
	C65.931725,48.469898 85.671608,45.715900 93.176018,54.739918 
	C98.790939,61.491837 105.547470,59.821110 112.298088,59.974968 
	C113.150856,59.994408 114.443222,58.928539 114.836388,58.053131 
	C118.221786,50.515232 115.375397,40.883053 108.581360,35.837139 
	C100.834030,30.083220 91.823647,28.983185 82.608017,28.411255 
	C52.022442,26.513096 30.782257,42.365788 25.387976,71.403381 
	C23.111320,83.658691 23.716108,95.930458 26.469774,108.912392 
M384.841492,95.471298 
	C384.841370,80.311745 384.163269,65.110710 385.087494,50.007721 
	C385.671234,40.468311 381.078369,34.657127 374.752716,29.266506 
	C373.705841,28.374376 370.849457,27.938465 370.086487,28.646469 
	C364.439392,33.886852 357.994019,38.616405 359.101685,48.019199 
	C359.798462,53.934322 359.164490,59.999214 359.244690,65.995346 
	C359.445129,80.977966 359.206543,95.989525 360.087616,110.933838 
	C361.072021,127.631203 369.892517,139.017624 385.229156,142.280487 
	C394.835480,144.324188 405.138184,145.129791 414.879456,144.110886 
	C440.868805,141.392532 451.199219,130.031189 452.205872,103.866310 
	C452.897125,85.900398 451.869812,67.861938 452.757385,49.912613 
	C453.226807,40.420509 448.835358,34.556488 442.410126,29.190918 
	C441.445007,28.385010 439.577637,27.767145 438.501953,28.140570 
	C433.839020,29.759356 427.046234,40.114338 427.037811,45.109100 
	C427.006104,63.933407 427.243317,82.762787 426.878815,101.580559 
	C426.543274,118.905190 418.362457,125.544991 401.164551,123.284813 
	C400.669098,123.219696 400.173035,123.159439 399.677185,123.097404 
	C393.256958,122.294128 388.619415,118.907845 387.065155,112.666763 
	C385.754944,107.405769 385.541992,101.871513 384.841492,95.471298 
M708.755432,78.499886 
	C708.755493,97.969658 708.812500,117.439728 708.708679,136.908951 
	C708.687439,140.889465 709.568726,143.314087 714.229248,143.037369 
	C718.540649,142.781342 722.879333,142.994751 727.205872,142.980804 
	C733.756409,142.959686 734.043518,142.699585 734.046143,136.270615 
	C734.057800,107.482018 733.532715,78.678810 734.343079,49.913036 
	C734.612976,40.333511 730.280701,34.653801 724.045837,29.198055 
	C723.106140,28.375786 721.232239,27.740349 720.158813,28.104431 
	C715.561523,29.663713 708.760986,40.077103 708.757751,45.050297 
	C708.750854,55.866821 708.755554,66.683350 708.755432,78.499886 
z"/>
<path fill="#000000" opacity="1.000000" stroke="none" 
	d="
M576.250488,74.764442 
	C575.758240,85.464165 576.457214,95.977333 574.398926,105.919662 
	C570.120728,126.584579 555.255005,139.633743 533.644165,141.811661 
	C519.783630,143.208511 505.711884,143.012192 491.750671,142.733871 
	C482.071808,142.540924 478.219330,138.148514 477.159760,128.429459 
	C476.925842,126.284027 476.939819,124.105247 476.938446,121.941757 
	C476.923553,98.456375 476.921997,74.970978 476.937836,51.485600 
	C476.939392,49.155842 476.920532,46.807877 477.184723,44.499672 
	C478.278992,34.938049 481.373505,30.962938 490.987122,30.781990 
	C506.751984,30.485262 522.756104,29.997211 538.269592,32.260860 
	C561.732178,35.684406 574.070435,50.632233 576.250488,74.764442 
M502.210876,100.494293 
	C502.238190,105.149750 502.029816,109.821625 502.352661,114.456497 
	C502.754883,120.231018 504.750793,122.043678 510.567322,122.208153 
	C514.548523,122.320740 518.568237,122.296829 522.523499,121.882614 
	C536.837524,120.383583 546.340881,112.715805 548.602722,99.262123 
	C549.930115,91.366585 549.929321,83.009949 549.026917,75.030251 
	C547.479797,61.349316 539.666321,53.960342 526.190491,51.978985 
	C521.770508,51.329124 517.264832,51.070602 512.792969,51.006798 
	C504.245911,50.884846 502.265259,52.921741 502.226715,61.582458 
	C502.170502,74.220245 502.211426,86.858459 502.210876,100.494293 
z"/>
<path fill="#000000" opacity="1.000000" stroke="none" 
	d="
M255.033615,103.000000 
	C255.034760,85.676224 255.035141,68.852440 255.038498,52.028660 
	C255.038757,50.696136 255.025406,49.362320 255.076050,48.031296 
	C255.575577,34.901604 259.539124,30.442020 272.616211,30.367329 
	C285.397980,30.294319 298.338593,30.197498 310.931580,32.025620 
	C326.271362,34.252499 334.380768,43.053047 335.951477,55.828560 
	C338.080444,73.145302 332.600220,83.955177 318.049561,91.164169 
	C317.347198,91.512154 316.686676,91.944580 315.874695,92.413963 
	C330.147675,104.133766 338.972931,119.110352 344.020111,136.423904 
	C345.776154,142.447693 345.192322,142.974594 338.865692,142.988098 
	C334.035126,142.998398 329.201965,142.891327 324.374786,143.019012 
	C320.899475,143.110947 318.690948,141.576843 317.454437,138.442474 
	C310.899109,121.825638 300.813385,107.823570 286.627686,96.870071 
	C283.686371,94.598930 283.313873,92.141106 285.746979,89.254242 
	C289.000854,85.393509 292.236328,82.178749 298.010193,81.742310 
	C301.130737,81.506432 305.075439,78.985023 306.811707,76.304871 
	C310.719604,70.272629 310.753204,63.283108 307.656281,56.740475 
	C304.593140,50.269154 288.388611,46.843075 283.141052,51.540646 
	C281.732727,52.801334 280.962769,55.283649 280.770966,57.288521 
	C280.375824,61.417889 280.528198,65.603447 280.525513,69.765938 
	C280.511230,91.753433 280.530914,113.740967 280.511627,135.728470 
	C280.505585,142.625977 280.113831,142.976761 273.133606,142.989014 
	C268.969299,142.996323 264.796814,142.827408 260.643005,143.035950 
	C256.549591,143.241470 254.944336,141.549637 254.990189,137.480118 
	C255.117828,126.154686 255.033951,114.826874 255.033615,103.000000 
z"/>
<path fill="#000000" opacity="1.000000" stroke="none" 
	d="
M623.196716,118.003212 
	C621.226990,118.003212 619.734131,118.003212 617.497192,118.003212 
	C616.719238,124.298355 615.492310,130.496094 615.325989,136.722153 
	C615.186340,141.952103 613.004578,143.369293 608.252319,143.048904 
	C603.939270,142.758133 599.591125,143.000076 595.258545,142.984283 
	C589.436279,142.963074 588.901306,142.311264 589.430542,136.636078 
	C591.517273,114.256508 597.528015,92.807602 605.732605,72.036232 
	C610.353455,60.337837 616.348572,49.169373 621.970886,37.884911 
	C624.766541,32.273991 629.805664,30.735289 635.948059,29.994221 
	C649.057495,28.412592 656.752686,34.071465 662.292236,45.514729 
	C675.803772,73.425545 685.365051,102.474693 689.690063,133.206299 
	C689.898315,134.686188 689.842529,136.201279 689.983459,137.693008 
	C690.348938,141.560181 688.636597,143.153259 684.754333,143.029343 
	C679.427307,142.859329 674.083008,142.810944 668.760864,143.045486 
	C664.849426,143.217865 663.462341,141.452103 663.139771,137.813446 
	C662.569153,131.376236 661.704773,124.965065 660.900940,118.003212 
	C648.228943,118.003212 635.951294,118.003212 623.196716,118.003212 
M624.302612,89.847023 
	C623.623413,92.505714 622.944275,95.164413 622.236633,97.934601 
	C633.485046,97.934601 644.387085,97.934601 655.678406,97.934601 
	C651.551270,82.996086 646.827759,68.713715 639.444092,55.482998 
	C638.774963,55.413288 638.105774,55.343578 637.436646,55.273869 
	C633.162415,66.550285 628.888184,77.826706 624.302612,89.847023 
z"/>
<path fill="#000000" opacity="1.000000" stroke="none" 
	d="
M228.306839,96.678032 
	C231.026688,110.241249 233.872940,123.377495 236.096573,136.618317 
	C237.044556,142.263214 235.914536,142.955185 230.225327,142.981964 
	C225.064011,143.006256 219.900238,142.893478 214.741837,143.018280 
	C211.402176,143.099106 210.012222,141.708862 209.733841,138.358047 
	C209.279922,132.894363 208.440155,127.461044 207.691391,122.024788 
	C207.515808,120.750000 207.053284,119.514725 206.715958,118.235344 
	C206.138214,118.149704 205.654724,118.015816 205.171127,118.015411 
	C191.692017,118.004120 178.212906,118.006348 163.873627,118.006348 
	C163.157623,124.353645 162.243286,130.679825 161.796570,137.038864 
	C161.493896,141.347351 159.954391,143.381073 155.334442,143.061356 
	C150.529007,142.728821 145.673172,142.800125 140.857208,143.045364 
	C136.881882,143.247787 135.133133,141.697220 135.874619,137.810425 
	C138.515762,123.965652 140.600922,109.972130 144.101395,96.344406 
	C148.860123,77.818306 155.633087,59.924690 165.019684,43.158150 
	C172.130112,30.457323 181.466385,26.540009 195.462021,31.024832 
	C198.742996,32.076199 202.316956,35.075680 203.876251,38.136547 
	C210.264038,50.675674 216.182220,63.474442 221.743652,76.405418 
	C224.484741,82.778740 226.071899,89.648354 228.306839,96.678032 
M198.316055,85.206635 
	C194.374725,75.140030 190.433411,65.073418 186.492096,55.006809 
	C185.667984,54.979328 184.843872,54.951851 184.019745,54.924370 
	C178.593399,69.036827 173.167053,83.149284 167.465286,97.977997 
	C179.924194,97.977997 190.823334,97.977997 202.144592,97.977997 
	C200.933609,93.784927 199.798279,89.853806 198.316055,85.206635 
z"/>
<path fill="#000000" opacity="1.000000" stroke="none" 
	d="
M26.337776,108.516418 
	C23.716108,95.930458 23.111320,83.658691 25.387976,71.403381 
	C30.782257,42.365788 52.022442,26.513096 82.608017,28.411255 
	C91.823647,28.983185 100.834030,30.083220 108.581360,35.837139 
	C115.375397,40.883053 118.221786,50.515232 114.836388,58.053131 
	C114.443222,58.928539 113.150856,59.994408 112.298088,59.974968 
	C105.547470,59.821110 98.790939,61.491837 93.176018,54.739918 
	C85.671608,45.715900 65.931725,48.469898 58.248161,59.204269 
	C55.515423,63.022057 52.937637,67.724136 52.488846,72.241096 
	C51.577011,81.418427 50.954258,90.937408 52.394108,99.967720 
	C55.063557,116.709633 67.312042,125.080292 84.412285,123.599884 
	C95.458801,122.643562 95.460808,122.643578 95.511337,111.604416 
	C95.524300,108.773407 95.944160,105.865494 95.447479,103.125145 
	C93.702065,93.495087 99.738068,87.942841 105.998299,82.595169 
	C106.892891,81.830986 109.615410,81.891014 110.533813,82.682030 
	C116.904488,88.169037 122.368294,93.792000 121.211868,103.707314 
	C120.138893,112.907143 120.859093,122.335403 121.083565,131.656006 
	C121.154953,134.620178 120.074669,136.114105 117.560020,137.372620 
	C102.890732,144.714264 87.244705,145.763184 71.316040,144.437515 
	C66.060303,144.000107 60.740204,142.951462 55.718487,141.342743 
	C39.786865,136.239044 30.240532,125.115898 26.337776,108.516418 
z"/>
<path fill="#000000" opacity="1.000000" stroke="none" 
	d="
M384.842407,95.964752 
	C385.541992,101.871513 385.754944,107.405769 387.065155,112.666763 
	C388.619415,118.907845 393.256958,122.294128 399.677185,123.097404 
	C400.173035,123.159439 400.669098,123.219696 401.164551,123.284813 
	C418.362457,125.544991 426.543274,118.905190 426.878815,101.580559 
	C427.243317,82.762787 427.006104,63.933407 427.037811,45.109100 
	C427.046234,40.114338 433.839020,29.759356 438.501953,28.140570 
	C439.577637,27.767145 441.445007,28.385010 442.410126,29.190918 
	C448.835358,34.556488 453.226807,40.420509 452.757385,49.912613 
	C451.869812,67.861938 452.897125,85.900398 452.205872,103.866310 
	C451.199219,130.031189 440.868805,141.392532 414.879456,144.110886 
	C405.138184,145.129791 394.835480,144.324188 385.229156,142.280487 
	C369.892517,139.017624 361.072021,127.631203 360.087616,110.933838 
	C359.206543,95.989525 359.445129,80.977966 359.244690,65.995346 
	C359.164490,59.999214 359.798462,53.934322 359.101685,48.019199 
	C357.994019,38.616405 364.439392,33.886852 370.086487,28.646469 
	C370.849457,27.938465 373.705841,28.374376 374.752716,29.266506 
	C381.078369,34.657127 385.671234,40.468311 385.087494,50.007721 
	C384.163269,65.110710 384.841370,80.311745 384.842407,95.964752 
z"/>
<path fill="#000000" opacity="1.000000" stroke="none" 
	d="
M708.755432,77.999878 
	C708.755554,66.683350 708.750854,55.866821 708.757751,45.050297 
	C708.760986,40.077103 715.561523,29.663713 720.158813,28.104431 
	C721.232239,27.740349 723.106140,28.375786 724.045837,29.198055 
	C730.280701,34.653801 734.612976,40.333511 734.343079,49.913036 
	C733.532715,78.678810 734.057800,107.482018 734.046143,136.270615 
	C734.043518,142.699585 733.756409,142.959686 727.205872,142.980804 
	C722.879333,142.994751 718.540649,142.781342 714.229248,143.037369 
	C709.568726,143.314087 708.687439,140.889465 708.708679,136.908951 
	C708.812500,117.439728 708.755493,97.969658 708.755432,77.999878 
z"/>
<path fill="transparent" opacity="1.000000" stroke="none" 
	d="
M502.210907,99.995392 
	C502.211426,86.858459 502.170502,74.220245 502.226715,61.582458 
	C502.265259,52.921741 504.245911,50.884846 512.792969,51.006798 
	C517.264832,51.070602 521.770508,51.329124 526.190491,51.978985 
	C539.666321,53.960342 547.479797,61.349316 549.026917,75.030251 
	C549.929321,83.009949 549.930115,91.366585 548.602722,99.262123 
	C546.340881,112.715805 536.837524,120.383583 522.523499,121.882614 
	C518.568237,122.296829 514.548523,122.320740 510.567322,122.208153 
	C504.750793,122.043678 502.754883,120.231018 502.352661,114.456497 
	C502.029816,109.821625 502.238190,105.149750 502.210907,99.995392 
z"/>
<path fill="transparent" opacity="1.000000" stroke="none" 
	d="
M624.458252,89.475075 
	C628.888184,77.826706 633.162415,66.550285 637.436646,55.273869 
	C638.105774,55.343578 638.774963,55.413288 639.444092,55.482998 
	C646.827759,68.713715 651.551270,82.996086 655.678406,97.934601 
	C644.387085,97.934601 633.485046,97.934601 622.236633,97.934601 
	C622.944275,95.164413 623.623413,92.505714 624.458252,89.475075 
z"/>
<path fill="transparent" opacity="1.000000" stroke="none" 
	d="
M198.489502,85.564667 
	C199.798279,89.853806 200.933609,93.784927 202.144592,97.977997 
	C190.823334,97.977997 179.924194,97.977997 167.465286,97.977997 
	C173.167053,83.149284 178.593399,69.036827 184.019745,54.924370 
	C184.843872,54.951851 185.667984,54.979328 186.492096,55.006809 
	C190.433411,65.073418 194.374725,75.140030 198.489502,85.564667 
z"/>
</svg>