<svg width="487" height="521" viewBox="0 0 487 521" fill="none" xmlns="http://www.w3.org/2000/svg">
<path d="M82.4999 255.5C41.9999 177 17 127.5 17 127.5C12 119 13.1667 119.5 21.5 119.5C29.8334 119.5 42.4845 120.5 115 120.5C177.5 120.5 194 182.5 190 227.5C216.5 191 199.968 183.233 210 162.5C225 131.5 256 133 270 136.5L279.5 131.5C279.5 131.5 286.235 129.294 291 128.5C297 127.5 297.5 137.5 292.5 138.5C287.5 139.5 275.714 142 270 157C262 178 282.5 194.5 247 257.5C224.428 297.557 123 334 82.4999 255.5Z" fill="black" stroke="black" stroke-linejoin="round"/>
<path d="M249 228.5C263.157 186.028 248 169 261 148C228.5 144 216 161 217 195C217.678 218.039 189.5 244 183 244.5C177.8 244.9 178.5 241.5 178.5 240V207H71.5C73.1667 209.833 86.7127 237.002 102 263.5C132 315.5 227.5 293 249 228.5Z" fill="white" stroke="white" stroke-linejoin="round"/>
<path d="M176.5 195L65.4999 195C65.4999 195 46.3715 158.246 34.4999 134.5C33.25 132 33 132 35.4999 132H106.5C151.5 132 176.5 162 176.5 195Z" fill="white" stroke="white" stroke-linejoin="round"/>
<path d="M289.5 274.5C261.415 355.564 171 326 138.5 300.5L125 295.5C125 295.5 102.955 281 105.5 284.5C109.5 290 112 294 112 294C115 299 144.293 329.209 185 336.5C220 342.769 241.029 337.346 248.5 338C317 344 367.5 318.5 396 261.5C396 261.5 440 178 468 123.5C469.022 121.511 470 120 466 120C432.998 120 381.5 121 381.5 121C339 121 321 135.5 308.5 153.5C281.274 192.705 309.075 218 289.5 274.5Z" fill="black" stroke="black" stroke-linejoin="round"/>
<path d="M370.5 281.499C355 297 325.5 328.499 267.001 327.499C266.005 327.482 263.53 326.961 266.501 324.999C293 307.5 299.001 278.499 301.501 278.499C330.018 278.499 349.5 279.499 369 278.499C370.309 278.432 372.217 279.782 370.5 281.499Z" fill="white" stroke="white"/>
<path d="M379 266.5H306.5C304 266.5 306 264 306.5 262C307 260 307.715 255.264 308.5 251C312 232 308.5 210 308.5 209C308.5 208 308 207 311 207L323.632 207C349.611 207 406.541 207 408.5 207C411 207 410.5 208 409.5 210L409.5 210C408.5 212 383 259.548 381.205 263C379.41 266.452 379 266.5 379 266.5Z" fill="white"/>
<path d="M415.5 194.5C387.5 194 347 194 309.5 194.5C307.181 194.531 307.895 193.078 308 191.5C308.5 184 310 178.5 311 173.5C311.5 171 313.332 171.5 315 171.5L427 171.5C427.976 171.5 429.357 172 428.5 173.5C424.5 180.5 422 185 417.5 193C416.656 194.5 416.476 194.517 415.5 194.5Z" fill="white"/>
<path d="M379 266.5C379 266.5 309 266.5 306.5 266.5C304 266.5 306 264 306.5 262C307 260 307.715 255.264 308.5 251C312 232 308.5 210 308.5 209C308.5 208 308 207 311 207C314 207 406 207 408.5 207C411 207 410.5 208 409.5 210C408.5 212 383 259.548 381.205 263M379 266.5C379 266.5 379.41 266.452 381.205 263M379 266.5L381.205 263M309.5 194.5C347 194 387.5 194 415.5 194.5C416.476 194.517 416.656 194.5 417.5 193C422 185 424.5 180.5 428.5 173.5C429.357 172 427.976 171.5 427 171.5C408.5 171.5 333 171.5 315 171.5C313.332 171.5 311.5 171 311 173.5C310 178.5 308.5 184 308 191.5C307.895 193.078 307.181 194.531 309.5 194.5Z" stroke="white"/>
<path d="M435 159H321.5C318 159 320.328 157.235 321 156.5C337 139 361.488 131.5 371.5 131.5H448.5C449.496 131.5 449.519 133.15 449 134C443.5 143 441.5 148.5 437 157C436.483 157.976 436 159 435 159Z" fill="white" stroke="white"/>
<path fill-rule="evenodd" clip-rule="evenodd" d="M237 516.5C238.451 520.543 246.049 522.419 248 516.5C250.832 507.906 254.37 497.118 258.323 485.065L258.324 485.063C274.61 435.405 297.942 362.261 308 334.5C309.006 331.723 292.69 334.754 273.756 335.951C262.008 336.694 249.252 337.5 239 337.5C225.553 337.5 207.879 335.831 194.278 334.547C182.088 333.397 173.169 332.555 173.5 333.5C184.724 365.6 195.847 397.902 205.964 427.284C218.382 463.346 229.285 495.009 237 516.5ZM248 338.5C263.5 338.768 277.5 338.768 291 338.5C293.5 338.45 294.936 338.809 294 341C293.778 341.519 293.204 343 293.204 343C293.204 343 275.501 395.517 266.5 423C258.907 446.184 251.364 469.138 244.5 489.5C243.683 491.925 242.842 493.154 242.499 493.154C242.159 493.155 241.316 491.947 240.5 489.5C234.955 472.865 225.051 444.057 214.5 414C213.923 412.357 213.5 411.5 212.5 409C203.634 383.741 195.136 357.966 188.5 338.5C187.879 336.68 187.953 336.242 192.5 337C204.5 339 217.733 339.098 227 338.5C228.558 338.399 231.633 338.572 233 338.5C234.92 338.399 234.5 338.5 234.5 343V441C234.5 448 246.5 447.5 246.5 441C246.5 423.802 246.741 408.657 246.987 393.25L246.987 393.249C247 377.5 247 361.073 247 342V340.5C247 339.5 246.61 338.476 248 338.5Z" fill="white"/>
<path fill-rule="evenodd" clip-rule="evenodd" d="M237 516.5C238.451 520.543 246.049 522.419 248 516.5C250.832 507.906 254.37 497.118 258.323 485.065L258.324 485.063C274.61 435.405 297.942 362.261 308 334.5C309.006 331.723 292.69 334.754 273.756 335.951C262.008 336.694 249.252 337.5 239 337.5C225.553 337.5 207.879 335.831 194.278 334.547C182.088 333.397 173.169 332.555 173.5 333.5C184.724 365.6 195.847 397.902 205.964 427.284C218.382 463.346 229.285 495.009 237 516.5ZM248 338.5C263.5 338.768 277.5 338.768 291 338.5C293.5 338.45 294.936 338.809 294 341C293.778 341.519 293.204 343 293.204 343C293.204 343 275.501 395.517 266.5 423C258.907 446.184 251.364 469.138 244.5 489.5C243.683 491.925 242.842 493.154 242.499 493.154C242.159 493.155 241.316 491.947 240.5 489.5C234.955 472.865 225.051 444.057 214.5 414C213.923 412.357 213.5 411.5 212.5 409C203.634 383.741 195.136 357.966 188.5 338.5C187.879 336.68 187.953 336.242 192.5 337C204.5 339 217.733 339.098 227 338.5C228.558 338.399 231.633 338.572 233 338.5C234.92 338.399 234.5 338.5 234.5 343V441C234.5 448 246.5 447.5 246.5 441C246.5 423.802 246.741 408.657 246.987 393.25L246.987 393.249C247 377.5 247 361.073 247 342V340.5C247 339.5 246.61 338.476 248 338.5Z" fill="black"/>
<path d="M247 342C247 361.073 247 377.5 246.987 393.249L246.987 393.25C246.741 408.657 246.5 423.802 246.5 441C246.5 447.5 234.5 448 234.5 441M247 342C247 341.565 247 341.5 247 340.5M247 342V340.5M234.5 441C234.5 406 234.5 380 234.5 343M234.5 441V343M234.5 343C234.5 338.5 234.92 338.399 233 338.5C231.633 338.572 228.558 338.399 227 338.5C217.733 339.098 204.5 339 192.5 337C187.953 336.242 187.879 336.68 188.5 338.5C195.136 357.966 203.634 383.741 212.5 409C213.5 411.5 213.923 412.357 214.5 414C225.051 444.057 234.955 472.865 240.5 489.5C241.316 491.947 242.159 493.155 242.499 493.154C242.842 493.154 243.683 491.925 244.5 489.5C251.364 469.138 258.907 446.184 266.5 423C275.501 395.517 293.204 343 293.204 343C293.204 343 293.778 341.519 294 341C294.936 338.809 293.5 338.45 291 338.5C277.5 338.768 263.5 338.768 248 338.5C246.61 338.476 247 339.5 247 340.5M173.5 333.5C173.169 332.555 182.088 333.397 194.278 334.547C207.879 335.831 225.553 337.5 239 337.5C249.252 337.5 262.008 336.694 273.756 335.951C292.69 334.754 309.006 331.723 308 334.5C297.942 362.261 274.61 435.405 258.324 485.063L258.323 485.065C254.37 497.118 250.832 507.906 248 516.5C246.049 522.419 238.451 520.543 237 516.5C229.285 495.009 218.382 463.346 205.964 427.284C195.847 397.902 184.724 365.6 173.5 333.5Z" stroke="black"/>
<path d="M338.5 127.5L336 124L343 126L338.5 127.5Z" fill="black" stroke="black"/>
<rect x="70.3343" y="106.652" width="43.9439" height="4.49661" rx="2.24831" transform="rotate(-50.6488 70.3343 106.652)" fill="black"/>
<circle cx="109.5" cy="70.5" r="15" fill="black" stroke="black"/>
<rect x="118.498" y="122.851" width="39.9224" height="4.49661" rx="2.24831" transform="rotate(-103.761 118.498 122.851)" fill="black"/>
<rect x="354.711" y="128.954" width="242.158" height="4.49661" rx="2.24831" transform="rotate(-165.753 354.711 128.954)" fill="black"/>
<rect x="182.679" y="353.213" width="116.252" height="4.49661" rx="2.24831" transform="rotate(147.482 182.679 353.213)" fill="black"/>
<rect x="72.6721" y="410.646" width="126.464" height="4.49661" rx="2.24831" transform="rotate(-69.0877 72.6721 410.646)" fill="black"/>
<rect x="198.771" y="460.134" width="117.436" height="4.49661" rx="2.24831" transform="rotate(-164.086 198.771 460.134)" fill="black"/>
<rect x="62.9256" y="415.226" width="85.5658" height="4.49661" rx="2.24831" transform="rotate(-120.158 62.9256 415.226)" fill="black"/>
<circle cx="74.5" cy="421.5" r="15" fill="black" stroke="black"/>
<circle cx="16" cy="275" r="15.5" fill="black" stroke="black"/>
<rect x="69.7503" y="411.088" width="133.718" height="4.49661" rx="2.24831" transform="rotate(-110.379 69.7503 411.088)" fill="black"/>
<rect x="20.0318" y="262.148" width="52.0756" height="4.49661" rx="2.24831" transform="rotate(-68.1918 20.0318 262.148)" fill="black"/>
<rect x="29.6392" y="272.319" width="73.7952" height="4.49661" rx="2.24831" transform="rotate(3.91687 29.6392 272.319)" fill="black"/>
<rect x="12.9483" y="261.689" width="82.0608" height="4.49661" rx="2.24831" transform="rotate(-84.3525 12.9483 261.689)" fill="black"/>
<rect x="210.711" y="490.354" width="53.0443" height="4.49661" rx="2.24831" transform="rotate(-165.125 210.711 490.354)" fill="black"/>
<circle cx="151" cy="474" r="10.5" fill="black" stroke="black"/>
<rect x="133" y="46.6991" width="107.012" height="4.49661" rx="2.24831" transform="rotate(-17.8739 133 46.6991)" fill="black"/>
<rect x="245.303" y="139.145" width="111.318" height="4.49661" rx="2.24831" transform="rotate(-90.3176 245.303 139.145)" fill="black"/>
<rect x="337.174" y="133.169" width="136.419" height="4.49661" rx="2.24831" transform="rotate(-126.503 337.174 133.169)" fill="black"/>
<rect x="142" y="128.487" width="142.44" height="4.49661" rx="2.24831" transform="rotate(-48.9354 142 128.487)" fill="black"/>
<circle cx="247.5" cy="15.5" r="15" fill="black" stroke="black"/>
<rect x="296" y="404.205" width="199.288" height="4.49661" rx="2.24831" transform="rotate(-25.3099 296 404.205)" fill="black"/>
<rect x="466.966" y="269.542" width="65.5432" height="4.49661" rx="2.24831" transform="rotate(-97.8624 466.966 269.542)" fill="black"/>
<rect x="468.568" y="297.201" width="135.555" height="4.49661" rx="2.24831" transform="rotate(110.962 468.568 297.201)" fill="black"/>
<rect x="456.515" y="285.335" width="72.677" height="4.49661" rx="2.24831" transform="rotate(-176.175 456.515 285.335)" fill="black"/>
<circle cx="471" cy="284" r="15.5" fill="black" stroke="black"/>
<rect x="418.406" y="109.83" width="74.436" height="4.49661" rx="2.24831" transform="rotate(-140.191 418.406 109.83)" fill="black"/>
<circle cx="355" cy="53" r="11.5" fill="black" stroke="black"/>
<circle cx="459" cy="195" r="10.5" fill="black" stroke="black"/>
<rect x="284.263" y="455.366" width="55.8391" height="4.49661" rx="2.24831" transform="rotate(-2.66304 284.263 455.366)" fill="black"/>
<rect x="353.479" y="450.525" width="45.4401" height="4.49661" rx="2.24831" transform="rotate(-27.1325 353.479 450.525)" fill="black"/>
<rect x="275" y="489.38" width="69.4717" height="4.49661" rx="2.24831" transform="rotate(-23.6202 275 489.38)" fill="black"/>
<circle cx="348" cy="460" r="11.5" fill="black" stroke="black"/>
<rect x="295.836" y="365" width="99.2067" height="4.49661" rx="2.24831" transform="rotate(58.5428 295.836 365)" fill="black"/>
<rect x="369.296" y="297" width="124.909" height="4.49661" rx="2.24831" transform="rotate(72.8212 369.296 297)" fill="black"/>
<circle cx="407.5" cy="428.5" r="15" fill="black" stroke="black"/>
</svg>
